<?xml version="1.0" encoding="UTF-8" standalone="no"?>
<svg
   version="1.0"
   width="512.000000pt"
   height="512.000000pt"
   viewBox="0 0 512.000000 512.000000"
   preserveAspectRatio="xMidYMid meet"
   id="svg2"
   sodipodi:docname="deslize-para-baixo.svg"
   inkscape:version="1.3.1 (9b9bdc1480, 2023-11-25, custom)"
   xmlns:inkscape="http://www.inkscape.org/namespaces/inkscape"
   xmlns:sodipodi="http://sodipodi.sourceforge.net/DTD/sodipodi-0.dtd"
   xmlns="http://www.w3.org/2000/svg"
   xmlns:svg="http://www.w3.org/2000/svg">
  <defs
     id="defs2" />
  <sodipodi:namedview
     id="namedview2"
     pagecolor="#ffffff"
     bordercolor="#000000"
     borderopacity="0.25"
     inkscape:showpageshadow="2"
     inkscape:pageopacity="0.0"
     inkscape:pagecheckerboard="0"
     inkscape:deskcolor="#d1d1d1"
     inkscape:document-units="pt"
     inkscape:zoom="0.95507813"
     inkscape:cx="438.70757"
     inkscape:cy="395.77914"
     inkscape:window-width="1848"
     inkscape:window-height="1016"
     inkscape:window-x="72"
     inkscape:window-y="27"
     inkscape:window-maximized="1"
     inkscape:current-layer="g2" />
  <g
     transform="translate(0.000000,512.000000) scale(0.100000,-0.100000)"
     fill="#000000"
     stroke="none"
     id="g2">
    <g
       id="g30"
       style="fill:#f9f9f9">
      <path
         d="M892 5109 c-45 -13 -108 -80 -121 -126 -7 -25 -11 -284 -11 -766 l0 -729 -51 46 c-58 52 -112 71 -178 62 -57 -8 -106 -39 -139 -89 -36 -54 -38 -154 -5 -207 12 -19 122 -135 245 -256 195 -194 229 -224 268 -234 55 -15 122 -7 164 19 17 11 131 120 252 243 194 195 224 229 234 268 33 123 -41 240 -161 256 -66 9 -120 -10 -178 -62 l-51 -45 -2 748 -3 748 -24 38 c-47 76 -151 113 -239 86z"
         id="path1"
         style="fill:#f9f9f9" />
      <path
         d="M2412 4380 c-109 -29 -187 -74 -272 -160 -87 -86 -131 -163 -160 -276 -19 -72 -20 -112 -20 -626 0 -301 -1 -548 -3 -548 -1 0 -34 7 -72 15 -139 29 -282 9 -408 -57 -81 -42 -203 -164 -245 -245 -63 -120 -72 -182 -72 -495 0 -153 5 -322 11 -376 61 -558 377 -1059 851 -1346 667 -405 1497 -341 2100 161 392 326 638 853 638 1366 0 463 -310 860 -765 979 -73 19 -114 22 -457 25 l-378 4 0 533 c0 498 -1 538 -20 610 -11 43 -34 105 -52 139 -42 81 -164 203 -245 245 -132 69 -291 88 -431 52z m258 -414 c21 -13 48 -42 61 -63 l24 -38 5 -666 5 -665 27 -41 c15 -22 44 -51 65 -64 l38 -24 490 -5 c470 -5 493 -7 555 -28 205 -69 359 -239 406 -449 42 -189 -16 -510 -133 -743 -76 -150 -139 -236 -268 -365 -169 -169 -343 -278 -550 -344 -659 -211 -1354 75 -1680 691 -54 103 -98 229 -127 361 -20 93 -22 130 -23 423 l0 320 27 41 c41 62 90 88 168 88 78 0 127 -26 168 -88 l27 -40 5 -266 c5 -258 6 -267 29 -304 13 -21 42 -50 64 -65 34 -23 52 -27 107 -27 55 0 73 4 107 27 22 15 51 44 64 65 l24 38 5 1065 5 1065 23 37 c26 41 68 75 110 89 46 15 130 3 172 -25z"
         id="path2"
         style="fill:#f9f9f9" />
      <path
         d="M892 5109 c-45 -13 -108 -80 -121 -126 -7 -25 -11 -284 -11 -766 l0 -729 -51 46 c-58 52 -112 71 -178 62 -57 -8 -106 -39 -139 -89 -36 -54 -38 -154 -5 -207 12 -19 122 -135 245 -256 195 -194 229 -224 268 -234 55 -15 122 -7 164 19 17 11 131 120 252 243 194 195 224 229 234 268 33 123 -41 240 -161 256 -66 9 -120 -10 -178 -62 l-51 -45 -2 748 -3 748 -24 38 c-47 76 -151 113 -239 86z"
         id="path22"
         style="fill:#f9f9f9" />
    </g>
  </g>
</svg>
