<?xml version="1.0" standalone="no"?>
<!DOCTYPE svg PUBLIC "-//W3C//DTD SVG 20010904//EN"
 "http://www.w3.org/TR/2001/REC-SVG-20010904/DTD/svg10.dtd">
<svg version="1.0" xmlns="http://www.w3.org/2000/svg"
 width="512.000000pt" height="512.000000pt" viewBox="0 0 512.000000 512.000000"
 preserveAspectRatio="xMidYMid meet">

<g transform="translate(0.000000,512.000000) scale(0.100000,-0.100000)"
fill="#000000" stroke="none">
<path d="M1015 4066 c-16 -8 -87 -72 -157 -142 -142 -145 -156 -172 -122 -240
34 -69 97 -94 177 -70 l27 8 0 -716 0 -716 33 -36 c40 -44 96 -55 150 -29 77
36 72 -15 75 789 2 649 4 717 18 705 23 -19 104 -16 136 5 38 25 61 80 55 129
-5 35 -21 56 -134 170 -154 155 -188 174 -258 143z"/>
</g>
</svg>
